<svg width="123" height="26" viewBox="0 0 123 26" fill="none" xmlns="http://www.w3.org/2000/svg">
<path d="M0.292892 12.2929C-0.0976315 12.6834 -0.0976315 13.3166 0.292892 13.7071L6.65685 20.0711C7.04738 20.4616 7.68054 20.4616 8.07107 20.0711C8.46159 19.6805 8.46159 19.0474 8.07107 18.6569L2.41421 13L8.07107 7.34315C8.46159 6.95262 8.46159 6.31946 8.07107 5.92893C7.68054 5.53841 7.04738 5.53841 6.65685 5.92893L0.292892 12.2929ZM20 12L1 12V14L20 14V12Z" fill="black"/>
<path d="M35.974 21V6.3H42.022C43.324 6.3 44.437 6.51 45.361 6.93C46.299 7.35 47.02 7.952 47.524 8.736C48.028 9.52 48.28 10.451 48.28 11.529C48.28 12.607 48.028 13.538 47.524 14.322C47.02 15.106 46.299 15.708 45.361 16.128C44.437 16.548 43.324 16.758 42.022 16.758H37.486L38.704 15.477V21H35.974ZM38.704 15.771L37.486 14.448H41.896C43.1 14.448 44.003 14.196 44.605 13.692C45.221 13.174 45.529 12.453 45.529 11.529C45.529 10.591 45.221 9.87 44.605 9.366C44.003 8.862 43.1 8.61 41.896 8.61H37.486L38.704 7.266V15.771ZM50.6517 21V9.786H53.1507V12.873L52.8567 11.97C53.1927 11.214 53.7177 10.64 54.4317 10.248C55.1597 9.856 56.0627 9.66 57.1407 9.66V12.159C57.0287 12.131 56.9237 12.117 56.8257 12.117C56.7277 12.103 56.6297 12.096 56.5317 12.096C55.5377 12.096 54.7467 12.39 54.1587 12.978C53.5707 13.552 53.2767 14.413 53.2767 15.561V21H50.6517ZM64.305 21.147C63.157 21.147 62.135 20.902 61.239 20.412C60.343 19.908 59.636 19.222 59.118 18.354C58.6 17.486 58.341 16.499 58.341 15.393C58.341 14.273 58.6 13.286 59.118 12.432C59.636 11.564 60.343 10.885 61.239 10.395C62.135 9.905 63.157 9.66 64.305 9.66C65.467 9.66 66.496 9.905 67.392 10.395C68.302 10.885 69.009 11.557 69.513 12.411C70.031 13.265 70.29 14.259 70.29 15.393C70.29 16.499 70.031 17.486 69.513 18.354C69.009 19.222 68.302 19.908 67.392 20.412C66.496 20.902 65.467 21.147 64.305 21.147ZM64.305 18.9C64.949 18.9 65.523 18.76 66.027 18.48C66.531 18.2 66.923 17.794 67.203 17.262C67.497 16.73 67.644 16.107 67.644 15.393C67.644 14.665 67.497 14.042 67.203 13.524C66.923 12.992 66.531 12.586 66.027 12.306C65.523 12.026 64.956 11.886 64.326 11.886C63.682 11.886 63.108 12.026 62.604 12.306C62.114 12.586 61.722 12.992 61.428 13.524C61.134 14.042 60.987 14.665 60.987 15.393C60.987 16.107 61.134 16.73 61.428 17.262C61.722 17.794 62.114 18.2 62.604 18.48C63.108 18.76 63.675 18.9 64.305 18.9ZM71.6451 25.221C71.1551 25.221 70.6931 25.165 70.2591 25.053C69.8111 24.955 69.4331 24.794 69.1251 24.57L69.8811 22.617C70.2871 22.911 70.7981 23.058 71.4141 23.058C71.8901 23.058 72.2611 22.904 72.5271 22.596C72.7931 22.302 72.9261 21.861 72.9261 21.273V9.786H75.5511V21.21C75.5511 22.442 75.2081 23.415 74.5221 24.129C73.8501 24.857 72.8911 25.221 71.6451 25.221ZM74.2281 7.938C73.7381 7.938 73.3321 7.784 73.0101 7.476C72.7021 7.168 72.5481 6.797 72.5481 6.363C72.5481 5.915 72.7021 5.544 73.0101 5.25C73.3321 4.942 73.7381 4.788 74.2281 4.788C74.7181 4.788 75.1171 4.935 75.4251 5.229C75.7471 5.509 75.9081 5.866 75.9081 6.3C75.9081 6.762 75.7541 7.154 75.4461 7.476C75.1381 7.784 74.7321 7.938 74.2281 7.938ZM84.2645 21.147C83.0185 21.147 81.9265 20.902 80.9885 20.412C80.0645 19.908 79.3435 19.222 78.8255 18.354C78.3215 17.486 78.0695 16.499 78.0695 15.393C78.0695 14.273 78.3145 13.286 78.8045 12.432C79.3085 11.564 79.9945 10.885 80.8625 10.395C81.7445 9.905 82.7455 9.66 83.8655 9.66C84.9575 9.66 85.9305 9.898 86.7845 10.374C87.6385 10.85 88.3105 11.522 88.8005 12.39C89.2905 13.258 89.5355 14.28 89.5355 15.456C89.5355 15.568 89.5285 15.694 89.5145 15.834C89.5145 15.974 89.5075 16.107 89.4935 16.233H80.1485V14.49H88.1075L87.0785 15.036C87.0925 14.392 86.9595 13.825 86.6795 13.335C86.3995 12.845 86.0145 12.46 85.5245 12.18C85.0485 11.9 84.4955 11.76 83.8655 11.76C83.2215 11.76 82.6545 11.9 82.1645 12.18C81.6885 12.46 81.3105 12.852 81.0305 13.356C80.7645 13.846 80.6315 14.427 80.6315 15.099V15.519C80.6315 16.191 80.7855 16.786 81.0935 17.304C81.4015 17.822 81.8355 18.221 82.3955 18.501C82.9555 18.781 83.5995 18.921 84.3275 18.921C84.9575 18.921 85.5245 18.823 86.0285 18.627C86.5325 18.431 86.9805 18.123 87.3725 17.703L88.7795 19.32C88.2755 19.908 87.6385 20.363 86.8685 20.685C86.1125 20.993 85.2445 21.147 84.2645 21.147ZM97.202 21.147C96.026 21.147 94.976 20.902 94.052 20.412C93.142 19.908 92.428 19.222 91.91 18.354C91.392 17.486 91.133 16.499 91.133 15.393C91.133 14.273 91.392 13.286 91.91 12.432C92.428 11.564 93.142 10.885 94.052 10.395C94.976 9.905 96.026 9.66 97.202 9.66C98.294 9.66 99.253 9.884 100.079 10.332C100.919 10.766 101.556 11.41 101.99 12.264L99.974 13.44C99.638 12.908 99.225 12.516 98.735 12.264C98.259 12.012 97.741 11.886 97.181 11.886C96.537 11.886 95.956 12.026 95.438 12.306C94.92 12.586 94.514 12.992 94.22 13.524C93.926 14.042 93.779 14.665 93.779 15.393C93.779 16.121 93.926 16.751 94.22 17.283C94.514 17.801 94.92 18.2 95.438 18.48C95.956 18.76 96.537 18.9 97.181 18.9C97.741 18.9 98.259 18.774 98.735 18.522C99.225 18.27 99.638 17.878 99.974 17.346L101.99 18.522C101.556 19.362 100.919 20.013 100.079 20.475C99.253 20.923 98.294 21.147 97.202 21.147ZM108.624 21.147C107.392 21.147 106.44 20.832 105.768 20.202C105.096 19.558 104.76 18.613 104.76 17.367V7.308H107.385V17.304C107.385 17.836 107.518 18.249 107.784 18.543C108.064 18.837 108.449 18.984 108.939 18.984C109.527 18.984 110.017 18.83 110.409 18.522L111.144 20.391C110.836 20.643 110.458 20.832 110.01 20.958C109.562 21.084 109.1 21.147 108.624 21.147ZM102.912 11.97V9.87H110.388V11.97H102.912ZM116.768 21.147C115.83 21.147 114.927 21.028 114.059 20.79C113.205 20.538 112.526 20.237 112.022 19.887L113.03 17.892C113.534 18.214 114.136 18.48 114.836 18.69C115.536 18.9 116.236 19.005 116.936 19.005C117.762 19.005 118.357 18.893 118.721 18.669C119.099 18.445 119.288 18.144 119.288 17.766C119.288 17.458 119.162 17.227 118.91 17.073C118.658 16.905 118.329 16.779 117.923 16.695C117.517 16.611 117.062 16.534 116.558 16.464C116.068 16.394 115.571 16.303 115.067 16.191C114.577 16.065 114.129 15.89 113.723 15.666C113.317 15.428 112.988 15.113 112.736 14.721C112.484 14.329 112.358 13.811 112.358 13.167C112.358 12.453 112.561 11.837 112.967 11.319C113.373 10.787 113.94 10.381 114.668 10.101C115.41 9.807 116.285 9.66 117.293 9.66C118.049 9.66 118.812 9.744 119.582 9.912C120.352 10.08 120.989 10.318 121.493 10.626L120.485 12.621C119.953 12.299 119.414 12.082 118.868 11.97C118.336 11.844 117.804 11.781 117.272 11.781C116.474 11.781 115.879 11.9 115.487 12.138C115.109 12.376 114.92 12.677 114.92 13.041C114.92 13.377 115.046 13.629 115.298 13.797C115.55 13.965 115.879 14.098 116.285 14.196C116.691 14.294 117.139 14.378 117.629 14.448C118.133 14.504 118.63 14.595 119.12 14.721C119.61 14.847 120.058 15.022 120.464 15.246C120.884 15.456 121.22 15.757 121.472 16.149C121.724 16.541 121.85 17.052 121.85 17.682C121.85 18.382 121.64 18.991 121.22 19.509C120.814 20.027 120.233 20.433 119.477 20.727C118.721 21.007 117.818 21.147 116.768 21.147Z" fill="black"/>
</svg>
