<svg width="48" height="48" viewBox="0 0 48 48" fill="none" xmlns="http://www.w3.org/2000/svg">
<path d="M16.9582 32V12.452H9.21822V6.8H31.7902V12.452H24.0862V32H16.9582Z" fill="black"/>
<path d="M28.5085 43.504C26.6605 43.504 24.9805 43.192 23.4685 42.568C21.9805 41.92 20.7445 40.996 19.7605 39.796L23.6485 35.188C24.3205 36.052 25.0165 36.712 25.7365 37.168C26.4565 37.6 27.2125 37.816 28.0045 37.816C30.1165 37.816 31.1725 36.592 31.1725 34.144V23.308H22.4605V17.8H38.2285V33.712C38.2285 37 37.4005 39.46 35.7445 41.092C34.0885 42.7 31.6765 43.504 28.5085 43.504Z" fill="black"/>
</svg>
