<svg width="96" height="96" viewBox="0 0 96 96" fill="none" xmlns="http://www.w3.org/2000/svg">
<path d="M30.9164 65V25.904H15.4364V14.6H60.5804V25.904H45.1724V65H30.9164Z" fill="white"/>
<path d="M54.5169 83.7858C50.8209 83.7858 47.4609 83.1618 44.4369 81.9138C41.4609 80.6178 38.9889 78.7698 37.0209 76.3698L44.7969 67.1538C46.1409 68.8818 47.5329 70.2018 48.9729 71.1138C50.4129 71.9778 51.9249 72.4098 53.5089 72.4098C57.7329 72.4098 59.8449 69.9618 59.8449 65.0658V43.3938H42.4209V32.3778H73.9569V64.2018C73.9569 70.7778 72.3009 75.6978 68.9889 78.9618C65.6769 82.1778 60.8529 83.7858 54.5169 83.7858Z" fill="white"/>
</svg>
