<svg width="24" height="24" viewBox="0 0 24 24" fill="none" xmlns="http://www.w3.org/2000/svg">
<path d="M8.47937 16V6.22602H4.60938V3.40002H15.8954V6.22602H12.0434V16H8.47937Z" fill="black"/>
<path d="M14.2539 21.752C13.3299 21.752 12.4899 21.596 11.7339 21.284C10.9899 20.96 10.3719 20.498 9.87988 19.898L11.8239 17.594C12.1599 18.026 12.5079 18.356 12.8679 18.584C13.2279 18.8 13.6059 18.908 14.0019 18.908C15.0579 18.908 15.5859 18.296 15.5859 17.072V11.654H11.2299V8.90002H19.1139V16.856C19.1139 18.5 18.6999 19.73 17.8719 20.546C17.0439 21.35 15.8379 21.752 14.2539 21.752Z" fill="black"/>
</svg>
