<svg width="48" height="48" viewBox="0 0 48 48" fill="none" xmlns="http://www.w3.org/2000/svg">
<path d="M37.2013 9.24438L24.1387 19.1995L10.7773 9.24438V9.24707L10.7935 9.26053V23.2003L23.988 33.3706L37.2013 23.5931V9.24438Z" fill="white"/>
<path d="M40.6326 6.82323L37.2021 9.24474V23.5935L47.9967 15.5003V10.625C47.9967 10.625 46.6864 3.66183 40.6326 6.82323Z" fill="white"/>
<path d="M37.2021 23.5935V42.2041H45.4756C45.4756 42.2041 47.8299 41.9673 47.9994 39.3467V15.5002L37.2021 23.5935Z" fill="white"/>
<path d="M10.7935 42.2205V23.201L10.7773 23.1875L10.7935 42.2205Z" fill="white"/>
<path d="M10.7784 9.24715L7.36675 6.8391C1.31299 3.67769 0 10.6382 0 10.6382V15.5135L10.7784 23.1869V9.24715Z" fill="white"/>
<path d="M10.7773 9.24756V23.1874L10.7935 23.2008V9.26101L10.7773 9.24756Z" fill="white"/>
<path d="M0 15.5161V39.3626C0.166815 41.9858 2.52375 42.2199 2.52375 42.2199H10.7972L10.7784 23.1869L0 15.5161Z" fill="white"/>
</svg>
